<svg xmlns="http://www.w3.org/2000/svg" width="61" height="35" fill="none" viewBox="0 0 61 35"><path fill="#301911" fill-rule="evenodd" d="M21.54 23.276v.738H0a7.496 7.496 0 0 0 1.603-4.636V5.634A7.54 7.54 0 0 0 0 .99h16.504v2.75c-.168-.21-.315-.407-.45-.588-.694-.928-1.085-1.451-2.465-1.451H6.767v9.28h6.576v2.751a23.608 23.608 0 0 1-.45-.588c-.694-.929-1.085-1.452-2.464-1.452H6.767v11.576H21.55l-.009.01ZM57.981 2.884C56.433 1.618 53.928.989 50.467.989H46.36v.692h3.898c1.12 0 2.05.183 2.787.538.747.364 1.311 1.002 1.694 1.93.383.93.574 2.232.574 3.908 0 1.676-.173 2.942-.52 3.87-.346.93-.883 1.577-1.602 1.95-.72.373-1.649.556-2.787.556h-4.035v.7h3.898c2.486 0 4.463-.327 5.93-.974 1.466-.655 2.513-1.53 3.15-2.632.638-1.102.957-2.322.957-3.643 0-2.068-.774-3.734-2.323-5ZM36.67 24.005h8.415v-.009a7.565 7.565 0 0 1-1.63-4.69V.988h-5.273l-6.667 16.695L25.62.998h-6.258a7.438 7.438 0 0 1 1.63 4.645l-.19 14.956h.737l.192-16.212 7.259 19.618h.71L38.3 2.483v16.831a7.564 7.564 0 0 1-1.63 4.691ZM6.905 32.548h.182c0-.273-.082-.519-.227-.72a1.329 1.329 0 0 0-.583-.464c-.51-.236-1.202-.218-1.685.073a1.66 1.66 0 0 0-.638.665c-.145.282-.227.61-.227.993 0 .382.072.72.227.993.155.282.365.5.638.664.264.155.574.237.902.237h.018c.282 0 .537-.054.774-.164.246-.109.437-.255.583-.464.146-.21.218-.447.218-.72h-.5c0 .273-.083.474-.265.62-.19.154-.464.236-.81.236-.255 0-.483-.054-.674-.163a1.078 1.078 0 0 1-.437-.465c-.1-.21-.155-.455-.155-.765s.054-.565.155-.765c.109-.2.255-.355.437-.465.182-.109.41-.164.674-.164.346 0 .62.073.81.228.173.146.264.346.264.61h.164v.036h.155v-.036Zm8.258 2.396h.537l-1.685-3.67h-.428l-1.685 3.67h.547l.51-1.102h1.694l.51 1.102Zm-1.976-1.594.6-1.293.019-.046.62 1.34h-1.24Zm7.551 1.594h.501v-1.166h1.093c.255 0 .492-.045.692-.146.21-.09.374-.236.501-.428a1.22 1.22 0 0 0 .183-.674 1.17 1.17 0 0 0-.683-1.12 1.677 1.677 0 0 0-.693-.137h-1.594v3.67Zm1.594-1.649H21.24v-1.53h1.093c.3 0 .52.064.665.191.137.119.21.31.21.574 0 .264-.064.456-.21.574-.146.128-.364.191-.665.191Zm8.063-2.022h.5v3.67h-.5v-3.67Zm8.403 3.671h.492v-3.188h1.44v-.491h-3.37v.491h1.438v3.188Zm10.03 0h.536l-1.648-3.57-.046-.1h-.419l-1.685 3.67h.547l.51-1.102h1.694l.51 1.102ZM46.85 33.35l.6-1.293.019-.046.62 1.34h-1.24Zm7.696 1.594h2.03v-.483h-1.53v-3.188h-.5v3.67Z" clip-rule="evenodd"/></svg>