<svg fill="none" height="21" viewBox="0 0 20 21" width="20" xmlns="http://www.w3.org/2000/svg"><g fill="#301911"><path d="m7.046 13.504v-2.663h6.43v2.663zm6.405-5.751v2.664h-6.421v-2.664zm-11.061 11.257v-1.375h1.01v.162h-.826v.421h.774v.162h-.774v.468h.859v.162h-1.044zm2.356-.147c.086.058.165.1.238.128l-.055.126c-.1-.035-.2-.092-.3-.169a.7.7 0 0 1 -.343.086.674.674 0 0 1 -.345-.09.606.606 0 0 1 -.238-.254.796.796 0 0 1 -.083-.367.81.81 0 0 1 .084-.371.584.584 0 0 1 .239-.254.694.694 0 0 1 .346-.088c.128 0 .246.03.35.09.103.061.182.146.237.254.054.109.081.231.081.367a.84.84 0 0 1 -.052.306.639.639 0 0 1 -.159.236zm-.407-.233c.107.03.195.073.264.132.109-.098.163-.245.163-.44a.688.688 0 0 0 -.057-.292.438.438 0 0 0 -.17-.194.463.463 0 0 0 -.249-.069.46.46 0 0 0 -.343.14c-.09.092-.136.231-.136.416 0 .184.045.316.135.412.09.095.205.143.344.143a.484.484 0 0 0 .187-.036.607.607 0 0 0 -.183-.079l.045-.132zm1.785-.996h.185v.795a.931.931 0 0 1 -.048.33.403.403 0 0 1 -.172.197.619.619 0 0 1 -.326.077.67.67 0 0 1 -.321-.067.383.383 0 0 1 -.179-.193.904.904 0 0 1 -.053-.344v-.795h.185v.794c0 .12.011.207.034.264.022.056.06.1.116.13a.41.41 0 0 0 .202.047c.136 0 .233-.03.29-.091.058-.061.087-.178.087-.35zm.336 1.376.537-1.376h.199l.572 1.375h-.21l-.164-.416h-.584l-.154.416h-.196zm.403-.566h.474l-.146-.38a3.715 3.715 0 0 1 -.1-.286 1.74 1.74 0 0 1 -.075.263zm1.05.566v-1.375h.185v1.213h.688v.162zm1.567 0v-1.376h.184v.565h.727v-.565h.185v1.375h-.185v-.648h-.727v.648h-.184zm1.347-.67c0-.228.062-.407.187-.536a.641.641 0 0 1 .482-.194c.13 0 .246.03.35.091.103.061.182.146.236.254a.812.812 0 0 1 .082.37.804.804 0 0 1 -.086.374.58.58 0 0 1 -.243.25.703.703 0 0 1 -.34.085.67.67 0 0 1 -.352-.094.607.607 0 0 1 -.236-.256.766.766 0 0 1 -.08-.344zm.19.003c0 .166.046.296.136.392a.45.45 0 0 0 .341.143.453.453 0 0 0 .344-.144c.09-.097.135-.233.135-.41 0-.113-.02-.21-.058-.294a.439.439 0 0 0 -.168-.194.463.463 0 0 0 -.25-.069.477.477 0 0 0 -.338.133c-.094.088-.142.236-.142.443zm2.306-.709h.185v.795a.93.93 0 0 1 -.047.33.403.403 0 0 1 -.172.197.619.619 0 0 1 -.327.077.67.67 0 0 1 -.321-.067.383.383 0 0 1 -.179-.193.905.905 0 0 1 -.053-.344v-.795h.185v.794c0 .12.011.207.034.264.022.056.061.1.116.13.055.031.122.047.202.047.136 0 .233-.03.29-.091.058-.061.087-.178.087-.35zm.43.933.174-.015a.376.376 0 0 0 .058.17c.03.044.077.08.14.107.064.027.136.04.215.04.07 0 .133-.01.187-.03a.258.258 0 0 0 .12-.085.194.194 0 0 0 .04-.118.179.179 0 0 0 -.038-.113.282.282 0 0 0 -.126-.081 2.535 2.535 0 0 0 -.249-.067 1.27 1.27 0 0 1 -.27-.086.376.376 0 0 1 -.149-.128.31.31 0 0 1 -.049-.172c0-.07.02-.134.06-.194a.373.373 0 0 1 .176-.138.673.673 0 0 1 .256-.047.71.71 0 0 1 .274.05.394.394 0 0 1 .252.361l-.178.014a.28.28 0 0 0 -.096-.198c-.056-.044-.137-.066-.244-.066s-.193.02-.245.06a.18.18 0 0 0 -.076.146c0 .05.018.09.054.122s.129.065.279.098c.15.034.253.063.31.088a.424.424 0 0 1 .18.14.367.367 0 0 1 -.006.403.418.418 0 0 1 -.184.151.65.65 0 0 1 -.27.054.815.815 0 0 1 -.317-.054.443.443 0 0 1 -.278-.411zm1.394.443v-1.376h.185v1.375h-.185zm.512 0v-1.376h.19l.734 1.08v-1.08h.178v1.375h-.19l-.735-1.08v1.08h-.177zm2.064-.54v-.16l.592-.002v.51c-.09.072-.184.126-.28.162a.848.848 0 0 1 -.673-.033.577.577 0 0 1 -.254-.251.778.778 0 0 1 -.086-.367c0-.135.029-.259.086-.375a.56.56 0 0 1 .245-.258.779.779 0 0 1 .37-.085c.1 0 .192.016.273.049a.456.456 0 0 1 .193.134.597.597 0 0 1 .105.225l-.166.045a.51.51 0 0 0 -.079-.165.322.322 0 0 0 -.133-.096.497.497 0 0 0 -.193-.036.575.575 0 0 0 -.219.038.404.404 0 0 0 -.15.1.48.48 0 0 0 -.087.136.708.708 0 0 0 -.054.277c0 .122.022.225.064.307a.407.407 0 0 0 .188.184c.082.04.169.06.261.06.08 0 .159-.015.235-.045a.605.605 0 0 0 .174-.097v-.256h-.412zm-15.482 1.696c0-.271.072-.483.218-.637a.74.74 0 0 1 .562-.23c.15 0 .286.036.406.108.121.072.213.172.277.302a.98.98 0 0 1 .094.438.973.973 0 0 1 -.1.445.684.684 0 0 1 -.283.297.808.808 0 0 1 -.395.1.768.768 0 0 1 -.411-.11.717.717 0 0 1 -.275-.305.925.925 0 0 1 -.093-.408zm.222.003c0 .197.053.352.159.465a.52.52 0 0 0 .397.17c.16 0 .295-.057.4-.171.105-.115.157-.277.157-.487a.84.84 0 0 0 -.067-.348.517.517 0 0 0 -.487-.313.55.55 0 0 0 -.394.158c-.11.105-.165.28-.165.526zm1.614.792v-1.634h.614c.108 0 .19.005.248.016.08.013.147.039.201.076a.4.4 0 0 1 .13.158c.034.067.05.142.05.223a.503.503 0 0 1 -.132.352c-.088.097-.248.145-.478.145h-.417v.664zm.215-.857h.421c.14 0 .239-.026.297-.078a.278.278 0 0 0 .088-.22.296.296 0 0 0 -.052-.175.24.24 0 0 0 -.136-.096.92.92 0 0 0 -.2-.015h-.417v.584zm1.301.857v-1.634h.614c.108 0 .19.005.248.016.08.013.147.039.2.076a.4.4 0 0 1 .131.158c.033.067.05.142.05.223a.503.503 0 0 1 -.133.352c-.088.097-.247.145-.477.145h-.418v.664zm.215-.857h.421c.14 0 .238-.026.297-.078a.278.278 0 0 0 .088-.22.296.296 0 0 0 -.052-.175.24.24 0 0 0 -.136-.096.92.92 0 0 0 -.201-.015h-.417zm1.238.062c0-.271.072-.483.217-.637a.74.74 0 0 1 .563-.23c.15 0 .285.036.406.108.12.072.213.172.276.302a.98.98 0 0 1 .095.438.974.974 0 0 1 -.1.445.684.684 0 0 1 -.283.297.808.808 0 0 1 -.396.1.768.768 0 0 1 -.41-.11.716.716 0 0 1 -.275-.305.925.925 0 0 1 -.093-.408zm.222.003c0 .197.053.352.158.465a.52.52 0 0 0 .397.17c.16 0 .296-.057.4-.171.105-.115.158-.277.158-.487a.84.84 0 0 0 -.067-.348.518.518 0 0 0 -.487-.313.55.55 0 0 0 -.394.158c-.11.105-.165.28-.165.526zm1.618.793v-1.634h.722a.96.96 0 0 1 .33.044c.076.03.137.081.182.155a.466.466 0 0 1 .068.247.412.412 0 0 1 -.113.293c-.074.08-.19.13-.346.151.057.028.1.055.13.082.063.058.122.13.179.217l.283.445h-.271l-.216-.34a3.14 3.14 0 0 0 -.155-.225.49.49 0 0 0 -.11-.11.328.328 0 0 0 -.098-.043.64.64 0 0 0 -.12-.008h-.25v.726h-.216zm.215-.913h.464c.098 0 .175-.01.23-.03a.246.246 0 0 0 .127-.099.266.266 0 0 0 .043-.146.244.244 0 0 0 -.083-.19c-.056-.05-.145-.076-.265-.076h-.517v.541zm1.798.913v-1.441h-.537v-.193h1.29v.193h-.538v1.441h-.214zm2.044-1.635h.215v.944c0 .164-.018.295-.055.391a.478.478 0 0 1 -.2.236.71.71 0 0 1 -.381.09.768.768 0 0 1 -.374-.078.452.452 0 0 1 -.208-.23 1.095 1.095 0 0 1 -.062-.409v-.944h.215v.943c0 .142.014.247.04.314a.3.3 0 0 0 .135.155.468.468 0 0 0 .235.055c.159 0 .272-.036.34-.108.067-.072.1-.21.1-.416zm.571 1.635v-1.634h.222l.855 1.283v-1.283h.207v1.634h-.222l-.855-1.284v1.284zm1.684-.001v-1.634h.215v1.634zm1.009 0v-1.441h-.536v-.193h1.29v.193h-.538v1.441zm1.435 0v-.692l-.628-.942h.263l.32.493c.06.092.115.184.166.276.05-.085.108-.181.178-.288l.316-.48h.25l-.65.941v.692zm1.929-13.678c-.032.058-.055.016 0 0z"/><path d="m19.57 7.283-9.201-6.258a.237.237 0 0 0 -.243-.004c-.628.422-1.257.844-1.884 1.267l-1.298.878-1.306.88-1.352.913-1.306.88-1.352.913-.707.481v2.523h1.218v7.44c.06.005.116.013.17.013 1.946 0 3.89-.001 5.835.001 3.381.004 6.763.01 10.145.016h.072v-7.453h1.209v-2.49c-.033.058-.055.016 0 0zm-3.218 7.338v.047h-12.176c-.001-.025-.004-.05-.004-.073v-6.191c0-.055.015-.085.063-.117.581-.388 1.16-.78 1.738-1.17l1.207-.814c.402-.271.805-.542 1.206-.814l1.238-.842c.183-.124.367-.246.549-.372.042-.03.072-.027.113.001.465.315.932.63 1.399.943l3.1 2.08 1.513 1.019c.03.02.056.043.056.095-.003 2.069-.002 4.138-.002 6.208z"/></g></svg>