<svg fill="none" height="38" viewBox="0 0 60 38" width="60" xmlns="http://www.w3.org/2000/svg"><path clip-rule="evenodd" d="m47.738 10.892 3.08-.647c.11.44.193.757.275 1.073.536 2.378 2.337 2.846 4.51 2.09a2.024 2.024 0 0 0 1.1-1.417 2.088 2.088 0 0 0 -.88-1.567 22.557 22.557 0 0 0 -2.929-1.196 18.925 18.925 0 0 1 -2.708-1.169 4.106 4.106 0 0 1 -1.499-5.595c.234-.399.523-.743.866-1.045 2.612-2.447 7.905-1.595 9.431 1.526.193.468.372.935.51 1.416-.243.066-.476.133-.703.198-.626.18-1.209.347-1.814.448-.233.042-.618-.247-.77-.48a2.943 2.943 0 0 0 -3.74-1.417c-.55.22-.962.687-1.14 1.251.068.578.412 1.086.92 1.361.82.38 1.664.7 2.508 1.022.899.342 1.797.684 2.662 1.095 2.117.935 3.08 3.41 2.145 5.513 0 0 0 .028-.014.042a4.39 4.39 0 0 1 -.44.88c-1.306 1.98-4.262 2.86-7.135 2.117a5.574 5.574 0 0 1 -4.303-5.087c0-.103.023-.206.046-.31zm-20.657-10.551h-.001c-.24-.004-.487-.009-.748-.01v15.88h3.024v-9.746c.413.33.743.742.977 1.21l.966 1.717a629.045 629.045 0 0 0 3.46 6.105c.207.358.537.633.922.742.825.07 1.663.083 2.488.042v-15.852h-3.066v10.188a16.984 16.984 0 0 1 -.591-.95c-.527-.948-1.057-1.895-1.587-2.842-1.06-1.894-2.12-3.788-3.156-5.695-.22-.55-.784-.88-1.375-.797-.423.027-.852.019-1.313.01zm-18.258 8.566-.773 1.723c-.58-1.286-1.14-2.538-1.69-3.769a939.16 939.16 0 0 0 -2.546-5.661c-.151-.33-.453-.784-.728-.811a23.635 23.635 0 0 0 -2.791-.043v15.866h3.01v-9.418c.107.18.184.298.242.387.062.094.101.154.13.218l1.275 2.75c.85 1.833 1.699 3.666 2.56 5.5.152.22.33.425.537.59.206-.165.385-.37.536-.59.38-.76.74-1.541 1.096-2.316l.169-.366c.31-.67.624-1.342.937-2.015v-.001c.587-1.26 1.175-2.522 1.757-3.785l.289.055v8.963h2.942v-15.741c-.105-.035-.22-.06-.328-.084l-.057-.013c-1.787-.11-3.043.651-3.767 2.283a802.34 802.34 0 0 1 -2.8 6.277zm17.138 28.203a4.83 4.83 0 0 0 1.169.88h.014l.275-.262v-5.142c0-.782-.417-.696-.975-.58h-.002l-.15.03v3.809c-.232-.41-.451-.788-.658-1.146v-.001h-.001l-.001-.002a43.093 43.093 0 0 1 -1.156-2.082.978.978 0 0 0 -1.416-.578v5.734h1.045v-3.492c.49.613.87 1.238 1.24 1.849.203.333.402.662.616.983zm-15.368-9.363c-.87.375-1.153-.084-1.498-.642l-.028-.046a2.852 2.852 0 0 1 -.22-.491c-.198-.53-.403-1.076-1.292-.87l-.061.363c-.1.604-.2 1.198-.338 1.782a2.783 2.783 0 0 1 -.756 0v-5.815c.28 0 .559-.006.837-.01.622-.012 1.24-.024 1.858.023.77.028 1.402.578 1.54 1.32a1.876 1.876 0 0 1 -1.155 2.241l1.1 2.131zm-3.12-2.832a17.557 17.557 0 0 0 2.034-.66c.11-.055.096-.797-.014-.852a17.342 17.342 0 0 0 -2.02-.66zm28.374-1.3c.078.034.155.07.232.103h.014l.151-.344a.195.195 0 0 1 -.027-.082 2.023 2.023 0 0 0 -2.53-1.347 1.512 1.512 0 0 0 -1.416 1.306c-.165.7.234 1.43.921 1.663.55.179 1.1.399 1.623.646.26.152.563.564.522.798-.041.247-.509.646-.729.605-.481-.097-1.14-.317-1.306-.674-.343-.729-.687-.66-1.347-.316.137.426.33.825.55 1.196a2.346 2.346 0 0 0 2.694.687 1.594 1.594 0 0 0 1.279-1.58c.041-1.114-.77-1.472-1.609-1.802a9.388 9.388 0 0 1 -1.21-.508.721.721 0 0 1 -.33-.605.66.66 0 0 1 .523-.44 5.31 5.31 0 0 1 1.182.357c.278.096.546.217.813.337zm-23.111 1.809v1.43h2.447c.206.646.248 1.072-.563 1.058a48.97 48.97 0 0 0 -1.892-.006c-.333.003-.673.006-1.023.006v-5.815h3.533c.289.77-.11.935-.784.907-.353-.018-.712-.012-1.089-.006-.195.003-.395.006-.602.006v1.389h2.2c.055.531-.683.88-2.213 1.044zm17.668 2.475c.742.04.921-.262.66-1.059v.014h-2.434v-1.514c.204 0 .397-.003.582-.006.353-.006.68-.012 1.013.006.715.042.921-.22.605-.948h-2.2v-1.416h2.503v-.908h-3.506v5.83c.33 0 .653-.005.969-.01.615-.009 1.208-.018 1.808.01zm21.338-2.434c-.028.165-.055.33-.055.509 0 .247.014.495.041.852h2.447c.193.633.316 1.086-.536 1.073h-2.915v-5.83h3.465c.046.413-.76.761-2.42 1.045a9.576 9.576 0 0 1 -.027.174c-.022.14-.046.286-.055.431 0 .206 0 .426.041.633h2.145c.11.476-.596.847-2.117 1.113zm-14.025 10.228-.894-.178.014.013c-.537 1.251-.894 1.568-1.595 1.416a1.507 1.507 0 0 1 -1.182-1.636 3.991 3.991 0 0 1 .247-1.705c.22-.398.619-.687 1.072-.756.454.042.853.303 1.087.688.37.742.742.605 1.25.26-.44-1.429-1.086-1.965-2.323-1.938a2.325 2.325 0 0 0 -2.35 2.035 6.286 6.286 0 0 0 .123 2.379 2.238 2.238 0 0 0 2.626 1.636c1.14-.138 1.746-.811 1.925-2.214zm-18.313-8.826a7.795 7.795 0 0 0 -1.498.027c-.33.124-.633.303-.908.523l-.446.288-.447.29-.248-.262a348.009 348.009 0 0 1 1.925-5.307c.069-.178.371-.412.522-.385.262.055.468.22.591.454.47 1.233.919 2.473 1.367 3.71l.544 1.5c-.795.487-1.013.014-1.24-.476a3.698 3.698 0 0 0 -.175-.348zm-1.058-3.313-.811 2.364h1.608zm27.002 4.314c.094.031.189.062.275.099l.206-.275c-.2-.55-.395-1.1-.592-1.648-.427-1.196-.853-2.39-1.306-3.577a.833.833 0 0 0 -.604-.44.845.845 0 0 0 -.564.495c-.547 1.466-1.074 2.942-1.673 4.62l-.334.934c.211-.088.402-.15.567-.204.297-.097.514-.168.629-.318.11-.165.247-.302.412-.412a1.74 1.74 0 0 1 2.42.426c.116.154.34.228.564.3zm-1.98-4.287.81 2.323h-1.608zm-20.65-10.545h-3.341v3.19h3.34v-3.19zm19.112-.013h3.244v3.189h-3.244v-3.19zm-2.334 11.436c.003-.449.006-.901.006-1.36 1.081-.148 1.6-.496 1.554-1.043h-4.359c-.109.974.357.973.867.973.325 0 .669-.001.893.25v4.523c.784.22 1.073 0 1.045-.715-.018-.866-.012-1.738-.006-2.628zm10.32-1.537v-.866h-4.386c-.15.938.293.944.776.95.316.003.65.007.846.273 0 .369.004.755.009 1.153.009.833.019 1.717-.009 2.6-.027.757.234 1.018 1.086.73v-4.73l1.677-.11zm-19.099 15.04c-.08-.067-.183-.136-.287-.205-.218-.145-.433-.289-.414-.4.266-1.584-.46-2.82-1.182-4.053a24.536 24.536 0 0 1 -.51-.897 4.123 4.123 0 0 1 -.15-.44c1.105-.163 1.377.503 1.649 1.167.164.401.327.802.674 1.02.343-.188.507-.57.676-.963.278-.646.569-1.321 1.689-1.21-.221.512-.5 1-.777 1.483-.757 1.32-1.496 2.61-.983 4.291l-.371.22-.014-.014zm-9.114-15.866v5.733h3.437a10.194 10.194 0 0 1 -.007-.282c-.004-.247-.008-.488-.048-.488a26.126 26.126 0 0 0 -1.892-.248l-.5-.054v-4.784z" fill="#301911" fill-rule="evenodd"/></svg>